<svg width="42" height="37" viewBox="0 0 42 37" fill="none" xmlns="http://www.w3.org/2000/svg">
<path d="M28.8386 2.06523C28.6334 1.86956 28.3147 1.85693 28.0947 2.03584L13.6154 13.8054C13.4518 13.9383 13.3762 14.1513 13.4192 14.3575C13.4622 14.5638 13.6167 14.7288 13.8197 14.7852L17.4035 15.7823L11.0992 21.9905C10.9559 22.1316 10.8987 22.3383 10.9491 22.533C10.9994 22.7276 11.1497 22.8807 11.3434 22.9345L15.3256 24.0425L6.90884 35.168C6.73422 35.3988 6.7629 35.7243 6.97514 35.921C7.11507 36.0506 7.30466 36.0966 7.47981 36.0579C7.57046 36.0379 7.65716 35.9953 7.73111 35.9299L22.4046 22.962C22.5593 22.8252 22.6268 22.6148 22.5805 22.4135C22.5342 22.2123 22.3815 22.0525 22.1825 21.9972L18.5426 20.9844L25.0632 14.4152C25.2045 14.2728 25.2594 14.0659 25.2073 13.8721C25.1552 13.6783 25.0039 13.5269 24.8102 13.4745L21.6729 12.6274L28.9035 2.80692C29.0717 2.57859 29.0439 2.26088 28.8386 2.06523ZM20.2775 12.6227C20.1672 12.7724 20.138 12.967 20.1993 13.1425C20.2607 13.318 20.4047 13.452 20.5842 13.5005L23.5807 14.3095L17.0662 20.8726C16.9254 21.0145 16.8702 21.2204 16.9215 21.4137C16.9726 21.6069 17.1224 21.7586 17.315 21.8121L20.8815 22.8045L11.2054 31.356L16.7237 24.0617C16.8363 23.9129 16.8679 23.7181 16.8082 23.5415C16.7485 23.3647 16.6052 23.2291 16.4255 23.1791L12.5833 22.1101L18.8876 15.9018C19.0309 15.7607 19.0881 15.554 19.0377 15.3593C18.9874 15.1647 18.8371 15.0116 18.6434 14.9578L15.1719 13.992L25.3767 5.69703L20.2775 12.6227Z" fill="#FC6652"/>
<path d="M37.1768 7.81608C37.1127 7.70837 36.9785 7.66507 36.8636 7.71506L29.2992 11.0026C29.2138 11.0398 29.1562 11.1214 29.15 11.2143C29.1438 11.3073 29.1899 11.3959 29.2696 11.4441L30.6766 12.295L27.2541 14.1877C27.1764 14.2307 27.1274 14.312 27.1257 14.4008C27.124 14.4897 27.1697 14.5727 27.2458 14.6187L28.8092 15.5642L23.9023 19.2989C23.8005 19.3764 23.774 19.5184 23.841 19.6274C23.8851 19.6992 23.9604 19.7413 24.0395 19.7457C24.0805 19.748 24.1225 19.7402 24.1617 19.7211L31.9514 15.9465C32.0335 15.9067 32.0873 15.8251 32.0915 15.7339C32.0958 15.6428 32.0498 15.5566 31.9716 15.5093L30.5426 14.6451L34.1001 12.6244C34.1772 12.5806 34.2252 12.499 34.2261 12.4103C34.2269 12.3216 34.1806 12.2391 34.1043 12.1938L32.8696 11.4599L37.1162 8.13956C37.215 8.06236 37.2409 7.9238 37.1768 7.81608ZM32.2761 11.2919C32.2113 11.3425 32.1757 11.4218 32.1809 11.5038C32.1862 11.5859 32.2316 11.66 32.3022 11.702L33.4816 12.403L29.9274 14.4218C29.8505 14.4655 29.8026 14.5466 29.8014 14.6349C29.8001 14.7233 29.8459 14.8057 29.9215 14.8514L31.3217 15.6982L26.185 18.1873L29.4021 15.7387C29.4677 15.6888 29.5044 15.6096 29.5 15.5273C29.4956 15.445 29.4507 15.3702 29.3802 15.3275L27.8717 14.4153L31.2942 12.5224C31.372 12.4794 31.421 12.3982 31.4227 12.3094C31.4244 12.2205 31.3786 12.1375 31.3026 12.0915L29.9397 11.2673L35.2709 8.95026L32.2761 11.2919Z" fill="#FC6652"/>
<path d="M6.75704 8.17248C6.68884 8.15629 6.61924 8.19332 6.59458 8.25894L4.97096 12.5761C4.95261 12.6248 4.96302 12.6797 4.99791 12.7184C5.03279 12.7571 5.08633 12.773 5.1367 12.7598L6.02597 12.5259L5.45414 14.6369C5.44114 14.6849 5.4547 14.7361 5.48972 14.7714C5.52473 14.8067 5.57589 14.8206 5.62395 14.808L6.61207 14.5481L6.20226 17.972C6.19376 18.0431 6.24046 18.109 6.31028 18.1245C6.35631 18.1347 6.4025 18.1209 6.43507 18.0908C6.45192 18.0753 6.46512 18.0554 6.47276 18.0322L7.98846 13.435C8.00444 13.3866 7.99261 13.3332 7.95764 13.296C7.92268 13.2589 7.87016 13.2438 7.82079 13.2568L6.91757 13.4943L7.49058 11.2793C7.503 11.2313 7.48893 11.1803 7.45365 11.1454C7.41837 11.1105 7.3672 11.097 7.31933 11.11L6.54406 11.3203L6.86336 8.3227C6.87078 8.25301 6.82525 8.18865 6.75704 8.17248ZM6.24561 11.4932C6.24074 11.5389 6.25875 11.5841 6.29371 11.6139C6.3287 11.6437 6.37613 11.6544 6.4205 11.6423L7.16097 11.4415L6.58849 13.6545C6.57612 13.7023 6.59002 13.7531 6.62504 13.788C6.66005 13.8229 6.71093 13.8366 6.75872 13.824L7.64371 13.5913L6.64422 16.6228L6.9129 14.3779C6.91839 14.3321 6.90085 14.2866 6.86609 14.2563C6.83132 14.226 6.78383 14.215 6.73924 14.2267L5.78585 14.4774L6.35767 12.3664C6.37066 12.3184 6.35711 12.2672 6.32209 12.2319C6.28708 12.1966 6.23593 12.1827 6.18786 12.1953L5.32647 12.4219L6.47077 9.37924L6.24561 11.4932Z" fill="#FC6652"/>
</svg>
