<svg width="48" height="61" viewBox="0 0 48 61" fill="none" xmlns="http://www.w3.org/2000/svg">
<path fill-rule="evenodd" clip-rule="evenodd" d="M4.18743 0H31.351C33.6636 0 35.5384 1.98011 35.5384 4.42271V55.9706C35.5384 58.4132 33.6636 60.3933 31.351 60.3933H4.18743C1.87477 60.3933 0 58.4132 0 55.9706V4.42271C0 1.98011 1.87477 0 4.18743 0ZM33.2303 55.3264V5.06733C33.2303 4.38035 32.9719 3.7215 32.5119 3.23573C32.052 2.74995 31.4282 2.47705 30.7778 2.47705H25.5004C25.299 2.47707 25.1018 2.53734 24.9315 2.65087C24.7612 2.7644 24.6248 2.92654 24.5381 3.11854L23.8059 4.73885C23.7193 4.93085 23.5829 5.093 23.4126 5.20653C23.2423 5.32006 23.045 5.38032 22.8436 5.38035H12.6843C12.4829 5.38032 12.2857 5.32006 12.1154 5.20653C11.9451 5.093 11.8087 4.93085 11.722 4.73885L10.9898 3.11854C10.9032 2.92654 10.7668 2.7644 10.5965 2.65087C10.4262 2.53734 10.2289 2.47707 10.0275 2.47705H4.76134C4.43927 2.47705 4.12036 2.54405 3.82281 2.67422C3.52526 2.8044 3.2549 2.9952 3.02717 3.23573C2.79943 3.47626 2.61879 3.76181 2.49554 4.07607C2.37229 4.39034 2.30885 4.72717 2.30885 5.06733V55.3264C2.30729 55.6659 2.36927 56.0025 2.49122 56.3167C2.61317 56.6309 2.7927 56.9165 3.01949 57.1572C3.24628 57.3979 3.51586 57.5889 3.81275 57.7192C4.10963 57.8496 4.42798 57.9166 4.74948 57.9166H30.7778C31.1001 57.9175 31.4194 57.8511 31.7173 57.7212C32.0152 57.5914 32.2859 57.4006 32.5138 57.1599C32.7417 56.9192 32.9223 56.6333 33.0453 56.3186C33.1682 56.004 33.2311 55.6668 33.2303 55.3264Z" fill="#ECECEC"/>
<path d="M24.5027 53.8232H11.0367C10.5765 53.8232 10.2034 54.2171 10.2034 54.703C10.2034 55.1889 10.5765 55.5827 11.0367 55.5827H24.5027C24.9629 55.5827 25.336 55.1889 25.336 54.703C25.336 54.2171 24.9629 53.8232 24.5027 53.8232Z" fill="#ECECEC"/>
<path d="M47.121 15.6941V29.3194C47.121 30.1007 46.8271 30.85 46.304 31.4025C45.7809 31.955 45.0714 32.2654 44.3317 32.2654H30.3155L24.3882 39.218V32.2654H22.1289C21.3894 32.2644 20.6805 31.9537 20.1576 31.4015C19.6347 30.8492 19.3405 30.1004 19.3396 29.3194V15.6941C19.3405 14.913 19.6347 14.1643 20.1576 13.612C20.6805 13.0597 21.3894 12.749 22.1289 12.748H44.3317C45.0714 12.748 45.7809 13.0584 46.304 13.6109C46.8271 14.1634 47.121 14.9127 47.121 15.6941Z" fill="white"/>
<path d="M26.1887 26.2786C25.4049 26.3426 24.6265 26.0961 24.0054 25.5871C23.7687 25.3631 23.5789 25.0896 23.4479 24.7839C23.3169 24.4781 23.2477 24.1469 23.2446 23.8113H24.1253C24.1338 24.052 24.1965 24.287 24.3083 24.4969C24.4202 24.7067 24.5779 24.8853 24.7683 25.0177C25.1832 25.2878 25.6639 25.4235 26.1511 25.4081C26.5855 25.4298 27.0161 25.3136 27.3874 25.0744C27.5334 24.9798 27.6535 24.8464 27.7357 24.6877C27.8179 24.5289 27.8594 24.3502 27.856 24.1693C27.8648 23.9889 27.8233 23.8097 27.7365 23.654C27.6497 23.4983 27.5215 23.373 27.3679 23.2936C26.8348 23.0404 26.2737 22.859 25.6978 22.7537C25.0832 22.6565 24.4999 22.4039 23.9977 22.0172C23.8279 21.8617 23.6933 21.6678 23.604 21.45C23.5147 21.2321 23.4729 20.9958 23.4817 20.7585C23.4771 20.4776 23.5355 20.1996 23.6523 19.9471C23.769 19.6947 23.9407 19.475 24.1532 19.3062C24.6678 18.9055 25.2978 18.7051 25.9363 18.739C26.6065 18.7053 27.2684 18.9065 27.8191 19.3113C28.0557 19.5009 28.2474 19.7459 28.379 20.0271C28.5107 20.3083 28.5787 20.6179 28.5778 20.9316H27.6915C27.5985 20.0478 27.0269 19.6059 25.9767 19.6059C25.5617 19.5793 25.1487 19.6851 24.7913 19.9093C24.6617 19.9942 24.5551 20.1129 24.4818 20.2541C24.4085 20.3953 24.371 20.5541 24.3729 20.7151C24.366 20.8508 24.3936 20.986 24.4528 21.1067C24.512 21.2274 24.6007 21.3292 24.7097 21.4015C25.1038 21.6168 25.5273 21.7659 25.9649 21.8434C26.4611 21.9512 26.9502 22.0924 27.4293 22.2662C27.7835 22.4005 28.1019 22.6231 28.3574 22.915C28.6254 23.2404 28.7639 23.6627 28.7437 24.0934C28.7477 24.394 28.6857 24.6914 28.5627 24.9624C28.4396 25.2334 28.2589 25.4706 28.0345 25.6556C27.5092 26.0888 26.8546 26.3097 26.1887 26.2786Z" fill="#9F9F9F"/>
<path d="M36.5092 26.1537H35.6425V19.9501L33.6718 26.1537H32.8539L30.8825 19.9501V26.1537H30.0186V18.8623H31.3895L33.2597 24.9414L35.1425 18.8623H36.5134L36.5092 26.1537Z" fill="#9F9F9F"/>
<path d="M40.659 26.2784C39.8752 26.3424 39.0968 26.0959 38.4757 25.5868C38.2392 25.3627 38.0495 25.089 37.9188 24.7831C37.788 24.4772 37.7191 24.146 37.7163 23.8104H38.597C38.6054 24.051 38.6682 24.286 38.78 24.4959C38.8919 24.7057 39.0495 24.8843 39.24 25.0168C39.6549 25.2868 40.1356 25.4226 40.6228 25.4071C41.0572 25.4288 41.4878 25.3126 41.8591 25.0735C42.0051 24.9788 42.1252 24.8455 42.2074 24.6867C42.2895 24.5279 42.331 24.3492 42.3277 24.1683C42.3365 23.9879 42.2949 23.8087 42.2082 23.653C42.1214 23.4974 41.9932 23.372 41.8396 23.2926C41.3065 23.0394 40.7454 22.8581 40.1695 22.7527C39.5549 22.6556 38.9716 22.4029 38.4694 22.0162C38.2996 21.8607 38.165 21.6669 38.0757 21.449C37.9864 21.2311 37.9446 20.9948 37.9534 20.7576C37.9488 20.4767 38.0072 20.1986 38.1239 19.9462C38.2407 19.6937 38.4123 19.474 38.6249 19.3052C39.1395 18.9045 39.7695 18.7042 40.408 18.7381C41.0781 18.7043 41.7401 18.9055 42.2907 19.3103C42.5274 19.4999 42.7191 19.745 42.8507 20.0261C42.9824 20.3073 43.0504 20.617 43.0494 20.9306H42.161C42.0681 20.0468 41.4965 19.6049 40.4463 19.6049C40.0313 19.5784 39.6183 19.6841 39.2609 19.9084C39.1313 19.9932 39.0247 20.1119 38.9514 20.2531C38.878 20.3943 38.8405 20.5531 38.8425 20.7141C38.8356 20.8498 38.8632 20.9851 38.9224 21.1058C38.9816 21.2265 39.0703 21.3282 39.1793 21.4005C39.5734 21.6158 39.9969 21.7649 40.4345 21.8424C40.9306 21.9502 41.4198 22.0914 41.8989 22.2652C42.2531 22.3995 42.5715 22.6221 42.827 22.914C43.095 23.2394 43.2335 23.6617 43.2133 24.0925C43.2173 24.393 43.1553 24.6904 43.0323 24.9614C42.9092 25.2324 42.7285 25.4697 42.5041 25.6546C41.979 26.0879 41.3248 26.3091 40.659 26.2784Z" fill="#9F9F9F"/>
</svg>
