<svg width="48" height="47" viewBox="0 0 48 47" fill="none" xmlns="http://www.w3.org/2000/svg">
<path d="M31.8262 25.36H1.56523C0.70122 25.36 0 24.6587 0 23.7947C0 22.9307 0.70122 22.2295 1.56523 22.2295H31.8262C32.6902 22.2295 33.3914 22.9307 33.3914 23.7947C33.3914 24.6587 32.6902 25.36 31.8262 25.36Z" fill="#FC6652"/>
<path d="M23.4784 33.7087C23.0776 33.7087 22.6771 33.5566 22.3721 33.2498C21.7607 32.6384 21.7607 31.6471 22.3721 31.0353L29.614 23.7938L22.3721 16.5519C21.7607 15.9405 21.7607 14.9489 22.3721 14.3375C22.9839 13.7261 23.9752 13.7261 24.5866 14.3375L32.9344 22.6856C33.5458 23.297 33.5458 24.2883 32.9344 24.8997L24.5866 33.2475C24.2798 33.5566 23.8793 33.7087 23.4784 33.7087Z" fill="#FC6652"/>
<path d="M25.0431 46.7516C15.5452 46.7516 7.15994 41.0375 3.67676 32.1925C3.35959 31.3912 3.75587 30.4813 4.5595 30.1642C5.36084 29.8512 6.273 30.2414 6.59017 31.0492C9.59758 38.6854 16.8414 43.6211 25.0431 43.6211C35.9745 43.6211 44.8695 34.7261 44.8695 23.7947C44.8695 12.8633 35.9745 3.96835 25.0431 3.96835C16.8414 3.96835 9.59758 8.90402 6.59017 16.5402C6.2707 17.3481 5.36084 17.7382 4.5595 17.4253C3.75587 17.1081 3.35959 16.1982 3.67676 15.3969C7.15994 6.55197 15.5452 0.837891 25.0431 0.837891C37.7006 0.837891 48 11.1372 48 23.7947C48 36.4522 37.7006 46.7516 25.0431 46.7516Z" fill="#FC6652"/>
</svg>
