<svg width="59" height="46" viewBox="0 0 59 46" fill="none" xmlns="http://www.w3.org/2000/svg">
<path d="M47.9458 15.9072L36.9354 15.9183C35.1396 15.9183 33.6484 17.3795 33.6484 19.1753V42.1535C33.6484 43.9493 35.1391 45.6326 36.9354 45.6326H36.9506L47.9384 45.5109C49.7342 45.5109 51.1991 43.994 51.1991 42.1982L51.212 19.2029C51.212 17.4011 49.7481 15.9072 47.9458 15.9072ZM41.4747 17.5154H43.4203C43.9292 17.5154 44.3422 17.9284 44.3422 18.4373C44.3422 18.9462 43.9292 19.3592 43.4203 19.3592H41.4747C40.9658 19.3592 40.5528 18.9462 40.5528 18.4373C40.5528 17.9284 40.9654 17.5154 41.4747 17.5154ZM38.1149 17.6256C38.4606 17.2845 39.0737 17.2845 39.4194 17.6256C39.5899 17.8008 39.6867 18.0358 39.6867 18.2801C39.6867 18.5198 39.5899 18.7595 39.4194 18.9301C39.2488 19.1006 39.0087 19.202 38.7648 19.202C38.5247 19.202 38.2855 19.1006 38.1149 18.9301C37.9444 18.7595 37.843 18.5198 37.843 18.2801C37.8434 18.0354 37.9444 17.7957 38.1149 17.6256ZM42.4473 44.501C41.6844 44.501 41.0635 43.8801 41.0635 43.1177C41.0635 42.3554 41.6844 41.7345 42.4473 41.7345C43.2101 41.7345 43.831 42.3549 43.831 43.1177C43.831 43.8806 43.2101 44.501 42.4473 44.501ZM49.3203 40.5623C49.3203 40.8167 49.1143 41.0232 48.8594 41.0232H35.9531C35.6982 41.0232 35.4922 40.8167 35.4922 40.5623V21.2029C35.4922 20.9485 35.6982 20.742 35.9531 20.742H48.8594C49.1143 20.742 49.3203 20.9485 49.3203 21.2029V40.5623Z" fill="url(#paint0_linear)"/>
<path d="M58.5262 34.1094H55.7734V3.51142C55.7734 1.42891 54.0767 0 51.9947 0H7.00533C4.92235 0 3.22656 1.42891 3.22656 3.51142V34.1094H0.472922C0.218484 34.1094 0 34.0375 0 34.2919V34.7215C0 37.0317 1.89123 39.1797 4.20098 39.1797H34.5703V32.2656H5.99219V4.14844H53.0078V32.2656H50.7031V39.1797H54.7972C57.1083 39.1797 59 37.0317 59 34.7215V34.2919C59 34.0375 58.7806 34.1094 58.5262 34.1094ZM30.1495 2.67252C29.9785 2.84352 29.7434 2.93986 29.4995 2.93986C29.2557 2.93986 29.0197 2.84352 28.8496 2.67252C28.674 2.49782 28.5777 2.26228 28.5777 2.01798C28.5777 1.77369 28.674 1.53861 28.8496 1.36806C29.1907 1.02236 29.8084 1.02236 30.1495 1.36806C30.3242 1.53861 30.4214 1.7783 30.4214 2.01798C30.4214 2.26228 30.3242 2.49736 30.1495 2.67252Z" fill="url(#paint1_linear)"/>
<defs>
<linearGradient id="paint0_linear" x1="42.4302" y1="15.9072" x2="42.4302" y2="45.6326" gradientUnits="userSpaceOnUse">
<stop stop-color="#D7412D"/>
<stop offset="1" stop-color="#FE6651"/>
</linearGradient>
<linearGradient id="paint1_linear" x1="29.5" y1="0" x2="29.5" y2="39.1797" gradientUnits="userSpaceOnUse">
<stop stop-color="#D7412D"/>
<stop offset="1" stop-color="#FE6651"/>
</linearGradient>
</defs>
</svg>
