<svg width="389" height="236" viewBox="0 0 389 236" fill="none" xmlns="http://www.w3.org/2000/svg">
<path opacity="0.9" d="M98.0361 235.897C79.201 235.897 62.4226 231.242 47.7009 221.933C32.9792 212.624 21.3967 199.201 12.9534 181.665C4.72653 163.912 0.61311 142.804 0.61311 118.34C0.61311 93.8758 4.72653 72.8758 12.9534 55.3396C21.3967 37.587 32.9792 24.056 47.7009 14.7467C62.4226 5.43741 79.201 0.782755 98.0361 0.782755C116.871 0.782755 133.65 5.43741 148.371 14.7467C163.093 24.056 174.567 37.587 182.794 55.3396C191.237 72.8758 195.459 93.8758 195.459 118.34C195.459 142.804 191.237 163.912 182.794 181.665C174.567 199.201 163.093 212.624 148.371 221.933C133.65 231.242 116.871 235.897 98.0361 235.897ZM98.0361 191.407C111.892 191.407 122.717 185.453 130.51 173.546C138.521 161.639 142.526 143.237 142.526 118.34C142.526 93.4428 138.521 75.0407 130.51 63.1335C122.717 51.2262 111.892 45.2726 98.0361 45.2726C84.3969 45.2726 73.5721 51.2262 65.5618 63.1335C57.7679 75.0407 53.871 93.4428 53.871 118.34C53.871 143.237 57.7679 161.639 65.5618 173.546C73.5721 185.453 84.3969 191.407 98.0361 191.407ZM388.958 189.134V232H217.169V197.902L304.849 115.092C314.159 106.216 320.437 98.6387 323.684 92.3604C326.932 85.8655 328.556 79.4789 328.556 73.2005C328.556 64.1077 325.416 57.1798 319.138 52.4169C313.076 47.4375 304.092 44.9478 292.184 44.9478C282.226 44.9478 273.241 46.8963 265.231 50.7932C257.22 54.4736 250.509 60.1025 245.097 67.6799L206.777 42.9994C215.653 29.7932 227.885 19.5096 243.473 12.1488C259.061 4.57142 276.921 0.782755 297.056 0.782755C313.942 0.782755 328.664 3.59719 341.221 9.22607C353.994 14.6385 363.844 22.4323 370.772 32.6076C377.917 42.5664 381.489 54.3654 381.489 68.0046C381.489 80.3449 378.891 91.9274 373.695 102.752C368.499 113.577 358.432 125.917 343.494 139.773L291.21 189.134H388.958Z" fill="url(#paint0_linear)"/>
<defs>
<linearGradient id="paint0_linear" x1="108.094" y1="-94.553" x2="174.259" y2="319.856" gradientUnits="userSpaceOnUse">
<stop stop-color="#FFCFC9"/>
<stop offset="1" stop-color="#FFE4E0" stop-opacity="0"/>
</linearGradient>
</defs>
</svg>
