<svg width="308" height="236" viewBox="0 0 308 236" fill="none" xmlns="http://www.w3.org/2000/svg">
<path d="M98.4164 235.897C79.5814 235.897 62.8032 231.242 48.0817 221.933C33.3601 212.624 21.7777 199.201 13.3345 181.665C5.10773 163.913 0.994358 142.805 0.994358 118.341C0.994358 93.8772 5.10773 72.8774 13.3345 55.3414C21.7777 37.589 33.3601 24.0581 48.0817 14.7489C62.8032 5.43973 79.5814 0.785123 98.4164 0.785123C117.251 0.785123 134.03 5.43973 148.751 14.7489C163.473 24.0581 174.947 37.589 183.174 55.3414C191.617 72.8774 195.838 93.8772 195.838 118.341C195.838 142.805 191.617 163.913 183.174 181.665C174.947 199.201 163.473 212.624 148.751 221.933C134.03 231.242 117.251 235.897 98.4164 235.897ZM98.4164 191.408C112.272 191.408 123.097 185.454 130.89 173.547C138.901 161.64 142.906 143.238 142.906 118.341C142.906 93.4443 138.901 75.0423 130.89 63.1352C123.097 51.2281 112.272 45.2745 98.4164 45.2745C84.7773 45.2745 73.9526 51.2281 65.9424 63.1352C58.1486 75.0423 54.2517 93.4443 54.2517 118.341C54.2517 143.238 58.1486 161.64 65.9424 173.547C73.9526 185.454 84.7773 191.408 98.4164 191.408ZM307.176 4.68199V232H254.568V46.8982H209.104V4.68199H307.176Z" fill="url(#paint0_linear)"/>
<defs>
<linearGradient id="paint0_linear" x1="43.4927" y1="-24.5" x2="91.5088" y2="330.134" gradientUnits="userSpaceOnUse">
<stop stop-color="#FFCFC9"/>
<stop offset="1" stop-color="#FFE4E0" stop-opacity="0"/>
</linearGradient>
</defs>
</svg>
