<svg width="46" height="26" viewBox="0 0 46 26" fill="none" xmlns="http://www.w3.org/2000/svg">
<path d="M34.9329 1.5215C34.1165 0.705072 32.7925 0.705072 31.9759 1.5215C31.1594 2.33793 31.1594 3.66189 31.9759 4.47846L38.8612 11.3637H2.09091C0.936168 11.3637 0 12.2998 0 13.4546C0 14.6093 0.936168 15.5455 2.09091 15.5455H38.8612L31.9761 22.4307C31.1595 23.2471 31.1595 24.5711 31.9761 25.3877C32.3842 25.7958 32.9194 26 33.4545 26C33.9896 26 34.5248 25.7958 34.9329 25.3875L45.3874 14.933C46.204 14.1166 46.204 12.7926 45.3874 11.976L34.9329 1.5215Z" fill="url(#paint0_linear)"/>
<defs>
<linearGradient id="paint0_linear" x1="45.9999" y1="14.5" x2="5.49994" y2="14.5" gradientUnits="userSpaceOnUse">
<stop stop-color="#FC6652"/>
<stop offset="1" stop-color="#FC6652" stop-opacity="0"/>
</linearGradient>
</defs>
</svg>
