<svg width="46" height="26" viewBox="0 0 46 26" fill="none" xmlns="http://www.w3.org/2000/svg">
<path d="M43.9091 10.4546H7.13884L14.0239 3.56939C14.8405 2.75296 14.8405 1.42899 14.0239 0.612426C13.2075 -0.204142 11.8835 -0.204142 11.067 0.612426L0.612426 11.067C-0.204142 11.8834 -0.204142 13.2073 0.612426 14.0239L11.067 24.4784C11.4752 24.8867 12.0104 25.0909 12.5455 25.0909C13.0806 25.0909 13.6158 24.8867 14.0239 24.4784C14.8405 23.662 14.8405 22.3381 14.0239 21.5215L7.13884 14.6364H43.9091C45.0638 14.6364 46 13.7002 46 12.5455C46 11.3908 45.0638 10.4546 43.9091 10.4546Z" fill="url(#paint0_linear)"/>
<defs>
<linearGradient id="paint0_linear" x1="-2.95314e-07" y1="13" x2="37" y2="13" gradientUnits="userSpaceOnUse">
<stop stop-color="#FC6652"/>
<stop offset="1" stop-color="#FC6652" stop-opacity="0"/>
</linearGradient>
</defs>
</svg>
