<svg width="80" height="73" viewBox="0 0 80 73" fill="none" xmlns="http://www.w3.org/2000/svg">
<g opacity="0.5">
<circle cx="1.90476" cy="13.3335" r="1.90476" fill="#C5C5C5"/>
<circle cx="11.4287" cy="13.3335" r="1.90476" fill="#C5C5C5"/>
<circle cx="20.9524" cy="13.3335" r="1.90476" fill="#C5C5C5"/>
<circle cx="30.4763" cy="13.3335" r="1.90476" fill="#C5C5C5"/>
<circle cx="59.0476" cy="13.3335" r="1.90476" fill="#C5C5C5"/>
<circle cx="40" cy="13.3335" r="1.90476" fill="#C5C5C5"/>
<circle cx="68.5715" cy="13.3335" r="1.90476" fill="#C5C5C5"/>
<circle cx="49.5239" cy="13.3335" r="1.90476" fill="#C5C5C5"/>
<circle cx="78.0952" cy="13.3335" r="1.90476" fill="#C5C5C5"/>
<circle cx="1.90476" cy="24.7622" r="1.90476" fill="#C5C5C5"/>
<circle cx="11.4287" cy="24.7622" r="1.90476" fill="#C5C5C5"/>
<circle cx="20.9524" cy="24.7622" r="1.90476" fill="#C5C5C5"/>
<circle cx="30.4763" cy="24.7622" r="1.90476" fill="#C5C5C5"/>
<circle cx="59.0476" cy="24.7622" r="1.90476" fill="#C5C5C5"/>
<circle cx="40" cy="24.7622" r="1.90476" fill="#C5C5C5"/>
<circle cx="68.5715" cy="24.7622" r="1.90476" fill="#C5C5C5"/>
<circle cx="49.5239" cy="24.7622" r="1.90476" fill="#C5C5C5"/>
<circle cx="78.0952" cy="24.7622" r="1.90476" fill="#C5C5C5"/>
<circle cx="1.90476" cy="36.1909" r="1.90476" fill="#C5C5C5"/>
<circle cx="11.4287" cy="36.1909" r="1.90476" fill="#C5C5C5"/>
<circle cx="20.9524" cy="36.1909" r="1.90476" fill="#C5C5C5"/>
<circle cx="30.4763" cy="36.1909" r="1.90476" fill="#C5C5C5"/>
<circle cx="59.0476" cy="36.1909" r="1.90476" fill="#C5C5C5"/>
<circle cx="40" cy="36.1909" r="1.90476" fill="#C5C5C5"/>
<circle cx="68.5715" cy="36.1909" r="1.90476" fill="#C5C5C5"/>
<circle cx="49.5239" cy="36.1909" r="1.90476" fill="#C5C5C5"/>
<circle cx="78.0952" cy="36.1909" r="1.90476" fill="#C5C5C5"/>
<circle cx="1.90476" cy="47.6186" r="1.90476" fill="#C5C5C5"/>
<circle cx="11.4287" cy="47.6186" r="1.90476" fill="#C5C5C5"/>
<circle cx="20.9524" cy="47.6186" r="1.90476" fill="#C5C5C5"/>
<circle cx="30.4763" cy="47.6186" r="1.90476" fill="#C5C5C5"/>
<circle cx="59.0476" cy="47.6186" r="1.90476" fill="#C5C5C5"/>
<circle cx="40" cy="47.6186" r="1.90476" fill="#C5C5C5"/>
<circle cx="68.5715" cy="47.6186" r="1.90476" fill="#C5C5C5"/>
<circle cx="49.5239" cy="47.6186" r="1.90476" fill="#C5C5C5"/>
<circle cx="78.0952" cy="47.6186" r="1.90476" fill="#C5C5C5"/>
<circle cx="1.90476" cy="59.0473" r="1.90476" fill="#C5C5C5"/>
<circle cx="11.4287" cy="59.0473" r="1.90476" fill="#C5C5C5"/>
<circle cx="20.9524" cy="59.0473" r="1.90476" fill="#C5C5C5"/>
<circle cx="30.4763" cy="59.0473" r="1.90476" fill="#C5C5C5"/>
<circle cx="59.0476" cy="59.0473" r="1.90476" fill="#C5C5C5"/>
<circle cx="40" cy="59.0473" r="1.90476" fill="#C5C5C5"/>
<circle cx="68.5715" cy="59.0473" r="1.90476" fill="#C5C5C5"/>
<circle cx="49.5239" cy="59.0473" r="1.90476" fill="#C5C5C5"/>
<circle cx="78.0952" cy="59.0473" r="1.90476" fill="#C5C5C5"/>
<circle cx="1.90476" cy="1.90476" r="1.90476" fill="#C5C5C5"/>
<circle cx="11.4287" cy="1.90476" r="1.90476" fill="#C5C5C5"/>
<circle cx="20.9524" cy="1.90476" r="1.90476" fill="#C5C5C5"/>
<circle cx="30.4763" cy="1.90476" r="1.90476" fill="#C5C5C5"/>
<circle cx="59.0476" cy="1.90476" r="1.90476" fill="#C5C5C5"/>
<circle cx="40" cy="1.90476" r="1.90476" fill="#C5C5C5"/>
<circle cx="68.5715" cy="1.90476" r="1.90476" fill="#C5C5C5"/>
<circle cx="49.5239" cy="1.90476" r="1.90476" fill="#C5C5C5"/>
<circle cx="78.0952" cy="1.90476" r="1.90476" fill="#C5C5C5"/>
<circle cx="1.90476" cy="70.4761" r="1.90476" fill="#C5C5C5"/>
<circle cx="11.4287" cy="70.4761" r="1.90476" fill="#C5C5C5"/>
<circle cx="20.9524" cy="70.4761" r="1.90476" fill="#C5C5C5"/>
<circle cx="30.4763" cy="70.4761" r="1.90476" fill="#C5C5C5"/>
<circle cx="59.0476" cy="70.4761" r="1.90476" fill="#C5C5C5"/>
<circle cx="40" cy="70.4761" r="1.90476" fill="#C5C5C5"/>
<circle cx="68.5715" cy="70.4761" r="1.90476" fill="#C5C5C5"/>
<circle cx="49.5239" cy="70.4761" r="1.90476" fill="#C5C5C5"/>
<circle cx="78.0952" cy="70.4761" r="1.90476" fill="#C5C5C5"/>
</g>
</svg>
