<svg width="64" height="45" viewBox="0 0 64 45" fill="none" xmlns="http://www.w3.org/2000/svg">
<circle cx="5.81931" cy="5.81931" r="5.81931" fill="white"/>
<circle cx="5.81931" cy="22.1133" r="5.81931" fill="#FFB5AB"/>
<circle cx="5.81931" cy="38.4072" r="5.81931" fill="#FFB5AB"/>
<rect x="14.7812" y="3.83594" width="49.2188" height="3.9375" rx="1.96875" fill="white"/>
<rect x="14.7812" y="19.8359" width="49.2188" height="3.9375" rx="1.96875" fill="#FFB5AB"/>
<rect x="14.7812" y="36.8359" width="49.2188" height="3.9375" rx="1.96875" fill="#FFB5AB"/>
<path d="M4.38103 6.14922C4.17059 5.93878 3.82941 5.93878 3.61897 6.14922C3.40853 6.35965 3.40853 6.70084 3.61897 6.91128L4.38103 6.14922ZM5.61659 8.14684L5.23555 8.52787C5.34876 8.64107 5.50643 8.69808 5.66585 8.68344C5.82528 8.6688 5.96993 8.58404 6.06063 8.45212L5.61659 8.14684ZM9.02437 4.14122C9.19298 3.89598 9.13085 3.56049 8.88561 3.39189C8.64037 3.22329 8.30489 3.28542 8.13628 3.53066L9.02437 4.14122ZM3.61897 6.91128L5.23555 8.52787L5.99762 7.7658L4.38103 6.14922L3.61897 6.91128ZM6.06063 8.45212L9.02437 4.14122L8.13628 3.53066L5.17254 7.84155L6.06063 8.45212Z" fill="#FC6652"/>
</svg>
