<svg width="37" height="47" viewBox="0 0 37 47" fill="none" xmlns="http://www.w3.org/2000/svg">
<path d="M25.1668 0.360936C24.9527 0.135395 24.6591 0 24.3548 0H6.13662C2.77489 0 0 2.76385 0 6.12522V40.5759C0 43.9376 2.77489 46.7014 6.13662 46.7014H30.8634C34.2251 46.7014 37 43.9376 37 40.5759V13.2206C37 12.9274 36.8646 12.6456 36.6729 12.4311L25.1668 0.360936ZM25.4939 3.98205L33.1986 12.0701H28.19C26.701 12.0701 25.4939 10.8744 25.4939 9.3854V3.98205ZM30.8634 44.4453H6.13662C4.0273 44.4453 2.25611 42.6969 2.25611 40.5759V6.12522C2.25611 4.0159 4.0159 2.25611 6.13662 2.25611H23.2378V9.3854C23.2378 12.1264 25.449 14.3263 28.19 14.3263H34.7439V40.5759C34.7439 42.6969 32.9841 44.4453 30.8634 44.4453Z" fill="white"/>
<path d="M27.7841 36.6621H9.21644C8.59611 36.6621 8.08838 37.1695 8.08838 37.7902C8.08838 38.4105 8.59611 38.9182 9.21644 38.9182H27.7955C28.4159 38.9182 28.9236 38.4105 28.9236 37.7902C28.9236 37.1695 28.4159 36.6621 27.7841 36.6621Z" fill="white"/>
<path d="M17.6761 32.6129C17.8906 32.8384 18.1839 32.9738 18.4995 32.9738C18.8156 32.9738 19.1088 32.8384 19.323 32.6129L25.9335 25.5175C26.3621 25.066 26.3282 24.3441 25.8772 23.9269C25.4257 23.4983 24.7039 23.5318 24.2866 23.9832L19.6276 28.9804V16.6622C19.6276 16.0416 19.1199 15.5342 18.4995 15.5342C17.8792 15.5342 17.3715 16.0416 17.3715 16.6622V28.9804L12.7239 23.9832C12.2952 23.5321 11.5844 23.4983 11.1333 23.9269C10.6822 24.3555 10.6484 25.0664 11.077 25.5175L17.6761 32.6129Z" fill="white"/>
</svg>
