<svg width="61" height="19" viewBox="0 0 61 19" fill="none" xmlns="http://www.w3.org/2000/svg">
<path d="M24.3568 0.311523L21.2654 18.4528H26.2095L29.3035 0.311523H24.3568Z" fill="#8F8F8F"/>
<path d="M17.1182 0.33194L12.2758 12.7038L11.7595 10.8357C10.8045 8.58493 8.09333 5.3524 4.9104 3.31522L9.33827 18.444L14.5698 18.4351L22.3561 0.328125L17.1182 0.33194Z" fill="#8F8F8F"/>
<path d="M9.88324 1.63009C9.59585 0.525028 8.76292 0.195671 7.72907 0.15625H0.0635824L0 0.517398C5.9653 1.96453 9.91249 5.45139 11.5504 9.64401L9.88324 1.63009Z" fill="#8F8F8F"/>
<path d="M39.3231 3.78951C40.9406 3.76407 42.1131 4.11759 43.0236 4.48383L43.4699 4.69365L44.1388 0.761715C43.1596 0.394209 41.6247 0 39.7096 0C34.824 0 31.3804 2.46063 31.3537 5.98691C31.3219 8.59252 33.8067 10.0473 35.6836 10.9158C37.6102 11.806 38.2562 12.3719 38.2473 13.1666C38.232 14.3811 36.7111 14.938 35.2907 14.938C33.3107 14.938 32.2591 14.6646 30.6352 13.9881L29.9981 13.6982L29.3025 17.7585C30.4597 18.2659 32.5948 18.7021 34.8113 18.725C40.0085 18.725 43.386 16.2936 43.4216 12.5257C43.4432 10.4644 42.1245 8.89135 39.2671 7.60063C37.5377 6.7588 36.4797 6.19928 36.4898 5.34982C36.4898 4.59573 37.3876 3.78951 39.3231 3.78951Z" fill="#8F8F8F"/>
<path d="M56.8275 0.333008H53.0075C51.821 0.333008 50.9385 0.656006 50.4171 1.83864L43.0759 18.4641H48.2681C48.2681 18.4641 49.115 16.2286 49.307 15.739C49.8754 15.739 54.92 15.7466 55.6385 15.7466C55.786 16.3799 56.2413 18.4641 56.2413 18.4641H60.8281L56.8275 0.333008ZM50.73 12.0258C51.1369 10.9843 52.6998 6.95574 52.6998 6.95574C52.673 7.00534 53.1029 5.90663 53.3585 5.22376L53.6916 6.78789C53.6916 6.78789 54.639 11.1191 54.8374 12.0258H50.73Z" fill="#8F8F8F"/>
</svg>
