<svg width="58" height="58" viewBox="0 0 58 58" fill="none" xmlns="http://www.w3.org/2000/svg">
<path d="M31.0718 33H27.5618V17.55L24.2918 20.94L22.2518 18.81L28.0118 12.99H31.0718V33Z" fill="#ECECEC"/>
<path d="M28.3304 43H27.0704V39.22C27.0704 38.524 26.7544 38.176 26.1224 38.176C25.8584 38.176 25.6024 38.252 25.3544 38.404C25.1064 38.556 24.9144 38.736 24.7784 38.944V43H23.5184V39.22C23.5184 38.524 23.1984 38.176 22.5584 38.176C22.3024 38.176 22.0504 38.252 21.8024 38.404C21.5624 38.556 21.3704 38.74 21.2264 38.956V43H19.9664V37.204H21.2264V37.996C21.3704 37.78 21.6184 37.572 21.9704 37.372C22.3304 37.164 22.7104 37.06 23.1104 37.06C23.9504 37.06 24.4784 37.416 24.6944 38.128C24.8784 37.84 25.1504 37.592 25.5104 37.384C25.8704 37.168 26.2544 37.06 26.6624 37.06C27.7744 37.06 28.3304 37.644 28.3304 38.812V43ZM30.5865 36.496C30.3785 36.496 30.1945 36.42 30.0345 36.268C29.8825 36.116 29.8065 35.932 29.8065 35.716C29.8065 35.5 29.8825 35.316 30.0345 35.164C30.1945 35.012 30.3785 34.936 30.5865 34.936C30.8025 34.936 30.9865 35.012 31.1385 35.164C31.2905 35.316 31.3665 35.5 31.3665 35.716C31.3665 35.932 31.2905 36.116 31.1385 36.268C30.9865 36.42 30.8025 36.496 30.5865 36.496ZM31.2225 43H29.9625V37.204H31.2225V43ZM38.029 43H36.769V39.376C36.769 38.576 36.381 38.176 35.605 38.176C35.301 38.176 35.017 38.252 34.753 38.404C34.489 38.556 34.277 38.74 34.117 38.956V43H32.857V37.204H34.117V37.996C34.333 37.74 34.621 37.52 34.981 37.336C35.341 37.152 35.733 37.06 36.157 37.06C36.773 37.06 37.237 37.22 37.549 37.54C37.869 37.86 38.029 38.32 38.029 38.92V43Z" fill="#ECECEC"/>
<circle cx="29" cy="29" r="28.5" stroke="#DCDCDC"/>
<line x1="29.4" y1="3.4" x2="29.4" y2="7.6" stroke="#DCDCDC" stroke-width="0.8" stroke-linecap="round"/>
<line x1="54.6" y1="29.4" x2="50.4" y2="29.4" stroke="#DCDCDC" stroke-width="0.8" stroke-linecap="round"/>
<line x1="7.6" y1="29.4" x2="3.4" y2="29.4" stroke="#DCDCDC" stroke-width="0.8" stroke-linecap="round"/>
<line x1="29.4" y1="50.4" x2="29.4" y2="54.6" stroke="#DCDCDC" stroke-width="0.8" stroke-linecap="round"/>
<line x1="13.5356" y1="44.5657" x2="10.5658" y2="47.5355" stroke="#DCDCDC" stroke-width="0.8" stroke-linecap="round"/>
<line x1="47.5356" y1="11.5657" x2="44.5658" y2="14.5355" stroke="#DCDCDC" stroke-width="0.8" stroke-linecap="round"/>
<line x1="0.4" y1="-0.4" x2="4.6" y2="-0.4" transform="matrix(0.707107 0.707107 0.707107 -0.707107 44 44)" stroke="#DCDCDC" stroke-width="0.8" stroke-linecap="round"/>
<line x1="0.4" y1="-0.4" x2="4.6" y2="-0.4" transform="matrix(0.707107 0.707107 0.707107 -0.707107 10 11)" stroke="#DCDCDC" stroke-width="0.8" stroke-linecap="round"/>
</svg>
