<svg width="38" height="45" viewBox="0 0 38 45" fill="none" xmlns="http://www.w3.org/2000/svg">
<path d="M37.8252 39.5764C37.8252 40.5435 37.0412 41.3275 36.074 41.3275H34.3229V43.0787C34.3229 44.0459 33.5389 44.8299 32.5717 44.8299C31.6045 44.8299 30.8205 44.0459 30.8205 43.0787V41.3275H29.0694C28.1022 41.3275 27.3182 40.5435 27.3182 39.5764C27.3182 38.6092 28.1022 37.8252 29.0694 37.8252H30.8205V36.074C30.8205 35.1069 31.6045 34.3229 32.5717 34.3229C33.5389 34.3229 34.3229 35.1069 34.3229 36.074V37.8252H36.074C37.0412 37.8252 37.8252 38.6092 37.8252 39.5764ZM37.8252 12.2582V29.0694C37.8252 30.0365 37.0412 30.8205 36.074 30.8205C35.1069 30.8205 34.3229 30.0365 34.3229 29.0694V14.0093H30.8205V19.2628C30.8205 20.23 30.0365 21.014 29.0694 21.014C28.1022 21.014 27.3182 20.23 27.3182 19.2628V14.0093H10.507V19.2628C10.507 20.23 9.723 21.014 8.75583 21.014C7.78866 21.014 7.00467 20.23 7.00467 19.2628V14.0093H3.50233V41.3275H22.0647C23.0319 41.3275 23.8159 42.1115 23.8159 43.0787C23.8159 44.0459 23.0319 44.8299 22.0647 44.8299H1.75117C0.783997 44.8299 0 44.0459 0 43.0787V12.2582C0 11.291 0.783997 10.507 1.75117 10.507H7.0875C7.78315 4.59883 12.8206 0 18.9126 0C25.0046 0 30.042 4.59883 30.7377 10.507H36.074C37.0412 10.507 37.8252 11.291 37.8252 12.2582ZM27.2008 10.507C26.5318 6.53667 23.0701 3.50233 18.9126 3.50233C14.7551 3.50233 11.2934 6.53667 10.6244 10.507H27.2008Z" fill="white"/>
</svg>
