<svg width="64" height="42" viewBox="0 0 64 42" fill="none" xmlns="http://www.w3.org/2000/svg">
<path d="M17.0544 17.9854C15.8555 17.9854 14.9365 18.3706 14.9365 18.3706L14.6827 19.8777C14.6827 19.8777 15.4408 19.5695 16.5887 19.5695C17.2402 19.5695 17.7161 19.642 17.7161 20.1712C17.7161 20.493 17.6584 20.612 17.6584 20.612C17.6584 20.612 17.145 20.5701 16.9071 20.5701C15.3943 20.5701 13.8057 21.2137 13.8057 23.1616C13.8057 24.6958 14.847 25.046 15.494 25.046C16.728 25.046 17.2606 24.246 17.2878 24.2437L17.23 24.9123H18.77L19.4567 20.0964C19.4555 18.0511 17.6731 17.9854 17.0544 17.9854ZM16.1909 23.5808C15.6482 23.5808 15.5065 23.1672 15.5065 22.9202C15.5065 22.442 15.766 21.8664 17.0476 21.8664C17.3467 21.8675 17.3785 21.8981 17.4283 21.9072C17.4623 22.2018 17.2448 23.5808 16.1909 23.5808Z" fill="#8F8F8F"/>
<path d="M22.6162 19.6003C22.8621 19.6003 23.8105 19.6785 23.8105 19.6785L24.0315 18.1352C24.0315 18.1352 23.4173 17.998 22.4179 17.998C21.1238 17.998 19.8116 18.5148 19.8116 20.2813C19.8116 22.2847 22.0009 22.0808 22.0009 22.9261C22.0009 23.4881 21.389 23.5346 20.9176 23.5346C20.1006 23.5346 19.3663 23.2558 19.364 23.2672L19.1306 24.798C19.1725 24.8094 19.6258 25.0111 21.0932 25.0111C21.4864 25.0111 23.738 25.1131 23.738 22.789C23.738 20.6156 21.6541 21.0451 21.6541 20.1714C21.6541 19.7363 21.9929 19.6003 22.6162 19.6003Z" fill="#8F8F8F"/>
<path d="M26.2951 19.797H27.2209L27.4441 18.1517H26.5716L26.7495 17.1318H25.001C24.9625 17.1692 23.9688 22.8837 23.9688 23.5772C23.9688 24.6095 24.5478 25.0672 25.3625 25.0593C26.0005 25.0548 26.4979 24.878 26.6736 24.8293L26.8923 23.3426C26.7721 23.3426 26.5965 23.3947 26.4413 23.3947C25.8328 23.3947 25.7659 23.0695 25.8044 22.8304L26.2951 19.797Z" fill="#8F8F8F"/>
<path d="M33.6247 10.252H30.504C30.0848 10.8185 29.6904 11.4214 29.3335 12.0106H34.9006C34.5142 11.3964 34.087 10.8095 33.6247 10.252Z" fill="#8F8F8F"/>
<path d="M57.9727 30.0343C57.9387 29.9833 57.9104 29.9448 57.8877 29.921C57.8752 29.9096 57.8594 29.8972 57.839 29.8915C57.8877 29.8881 57.9285 29.87 57.958 29.8394C57.9863 29.8088 58.0022 29.7725 58.0022 29.7306C58.0022 29.7011 57.9931 29.6728 57.9761 29.6467C57.9591 29.6207 57.9342 29.6014 57.9036 29.5912C57.8752 29.5799 57.8265 29.5742 57.7597 29.5742H57.5625V30.1465H57.6554V29.904H57.7087C57.7404 29.904 57.7665 29.9108 57.7812 29.9244C57.805 29.9436 57.839 29.9878 57.8786 30.0569L57.9285 30.1476H58.043L57.9727 30.0343ZM57.7665 29.828H57.6532V29.6558H57.7597C57.8039 29.6558 57.8333 29.6592 57.8503 29.666C57.8685 29.6728 57.8798 29.683 57.89 29.6955C57.899 29.7091 57.9036 29.7238 57.9036 29.7397C57.9036 29.7657 57.8945 29.7884 57.8752 29.8042C57.856 29.819 57.8186 29.828 57.7665 29.828Z" fill="#8F8F8F"/>
<path d="M35.846 13.7354H28.3594C27.8812 14.6407 27.5639 15.3252 27.4744 15.4951H36.5554C36.3503 14.89 36.1146 14.3042 35.846 13.7354Z" fill="#8F8F8F"/>
<path d="M11.6636 16.5928L9.94005 21.7033L9.85053 16.5928H7.29869L5.90039 24.9203H7.58764L8.65167 18.6426L8.80804 24.9203H10.0126L12.2596 18.6426L11.2636 24.9203H13.0539L14.433 16.5928H11.6636Z" fill="#8F8F8F"/>
<path d="M45.4041 17.9854C44.2029 17.9854 43.2851 18.3706 43.2851 18.3706L43.0301 19.8777C43.0301 19.8777 43.7893 19.5695 44.9361 19.5695C45.5876 19.5695 46.0647 19.642 46.0647 20.1712C46.0647 20.493 46.0046 20.612 46.0046 20.612C46.0046 20.612 45.4925 20.5701 45.2522 20.5701C43.7406 20.5701 42.1531 21.2137 42.1531 23.1616C42.1531 24.6958 43.1956 25.046 43.8415 25.046C45.0743 25.046 45.6069 24.246 45.6352 24.2437L45.5774 24.9123H47.1163L47.8029 20.0964C47.8063 18.0511 46.0228 17.9854 45.4041 17.9854ZM44.5429 23.5808C43.999 23.5808 43.8585 23.1672 43.8585 22.9202C43.8585 22.442 44.1179 21.8664 45.3995 21.8664C45.6975 21.8675 45.7293 21.8981 45.7803 21.9072C45.8131 22.2018 45.5944 23.5808 44.5429 23.5808Z" fill="#8F8F8F"/>
<path d="M58.0282 24.153C57.9818 24.0669 57.9138 24.0012 57.8288 23.9558C57.7449 23.9094 57.6588 23.8867 57.5682 23.8867C57.4809 23.8879 57.3937 23.9105 57.3075 23.9558C57.2225 24.0012 57.1568 24.0669 57.1092 24.153C57.0616 24.238 57.0378 24.3264 57.0378 24.4182C57.0378 24.5099 57.0616 24.5972 57.1092 24.6811C57.1557 24.7649 57.2214 24.8318 57.3053 24.8794C57.3902 24.9258 57.4775 24.9496 57.5682 24.9496C57.6611 24.9496 57.7495 24.9258 57.8322 24.8794C57.916 24.8318 57.9818 24.7649 58.0282 24.6811C58.0769 24.5972 58.0985 24.5099 58.0985 24.4182C58.0985 24.3241 58.0758 24.2357 58.0282 24.153ZM57.9546 24.6369C57.916 24.7071 57.8616 24.7604 57.7903 24.8023C57.72 24.8408 57.6475 24.8612 57.5716 24.8612C57.4945 24.8612 57.4208 24.8408 57.3517 24.8023C57.2803 24.7626 57.2271 24.7082 57.1863 24.6369C57.1455 24.5655 57.1274 24.493 57.1274 24.417C57.1274 24.3411 57.1466 24.2675 57.1886 24.1961C57.2282 24.1258 57.2815 24.0714 57.354 24.0318C57.4265 23.9921 57.4979 23.9751 57.5716 23.9751C57.6452 23.9751 57.7177 23.9932 57.7869 24.0318C57.8594 24.0714 57.9126 24.1247 57.9523 24.1961C57.992 24.2675 58.0135 24.3411 58.0135 24.417C58.0135 24.493 57.9942 24.5666 57.9546 24.6369Z" fill="#8F8F8F"/>
<path d="M57.748 24.5987C57.7151 24.5455 57.6857 24.5081 57.6642 24.4854C57.6506 24.4729 57.6358 24.4627 57.6154 24.456C57.6642 24.4526 57.7038 24.4344 57.7333 24.4038C57.7616 24.3744 57.7786 24.3358 57.7786 24.295C57.7786 24.2667 57.7695 24.2373 57.7514 24.2112C57.7333 24.1863 57.7095 24.167 57.6811 24.1557C57.6528 24.1443 57.603 24.1387 57.5361 24.1387H57.3367V24.7098H57.4296V24.4673H57.4828C57.5157 24.4673 57.5418 24.4741 57.5576 24.4865C57.5814 24.5069 57.6132 24.55 57.6551 24.6214L57.7038 24.7109H57.8183L57.748 24.5987ZM57.544 24.3891H57.4319V24.2157H57.5361C57.5814 24.2157 57.6109 24.2191 57.629 24.2248C57.6438 24.2327 57.6574 24.2407 57.6664 24.2554C57.6766 24.2701 57.6811 24.2826 57.6811 24.3018C57.6811 24.3268 57.671 24.3483 57.654 24.3642C57.6324 24.3834 57.5973 24.3891 57.544 24.3891Z" fill="#8F8F8F"/>
<path d="M51.3458 18.0684C50.5628 18.0684 49.9815 19.1369 49.9815 19.1369L50.1379 18.1545H48.5085L47.4172 24.9329H49.2121C49.7232 22.0366 49.8161 19.6876 51.0297 20.1171C51.2439 18.9975 51.4501 18.5635 51.6824 18.091C51.6824 18.0922 51.5736 18.0684 51.3458 18.0684Z" fill="#8F8F8F"/>
<path d="M55.856 16.602L55.4787 18.942C55.4787 18.942 54.8215 18.0321 53.7903 18.0321C52.1869 18.0332 50.8521 19.9652 50.8521 22.1839C50.8521 23.6173 51.5648 25.0213 53.0198 25.0213C54.0679 25.0213 54.6481 24.2904 54.6481 24.2904L54.5722 24.9148H56.273L57.6101 16.5986L55.856 16.602ZM53.6385 23.3216C53.0084 23.3216 52.7138 22.7935 52.7138 21.9641C52.7138 20.6077 53.3223 19.7136 54.0917 19.7136C54.7195 19.7148 55.0424 20.1465 55.0424 21.1641C55.0424 22.0876 54.5858 23.3216 53.6385 23.3216Z" fill="#8F8F8F"/>
<path d="M62.3524 0H1.64759C0.736544 0 0 0.737677 0 1.64759V39.8289C0 40.7388 0.736544 41.4765 1.64759 41.4765H62.3524C63.2635 41.4765 64 40.7388 64 39.8289V1.64759C64 0.737677 63.2635 0 62.3524 0ZM58.2538 30.1179C58.2062 30.204 58.1416 30.2697 58.0578 30.3162C57.9739 30.3626 57.8856 30.3864 57.7949 30.3864C57.702 30.3864 57.6136 30.3626 57.5297 30.3162C57.447 30.2697 57.3813 30.204 57.3326 30.1179C57.2861 30.0351 57.2623 29.9467 57.2623 29.855C57.2623 29.7632 57.2861 29.6759 57.3337 29.5898C57.3802 29.5037 57.4482 29.4391 57.532 29.3926C57.617 29.3484 57.7031 29.3246 57.7938 29.3246C57.8833 29.3246 57.9694 29.3484 58.0533 29.3926C58.1382 29.4391 58.2051 29.5037 58.2516 29.5898C58.2992 29.6759 58.3218 29.7643 58.3218 29.855C58.3218 29.9456 58.3014 30.0374 58.2538 30.1179ZM59.4414 20.7388C59.4436 29.8096 52.0941 37.166 43.0221 37.1683C38.7796 37.1694 34.911 35.5615 31.9966 32.9201C29.0822 35.5569 25.2215 37.1637 20.9858 37.1637C11.9195 37.1637 4.56091 29.8062 4.56091 20.7388C4.56091 11.7076 11.8618 4.37167 20.8805 4.31275C20.9156 4.31275 20.9507 4.31275 20.9858 4.31275C25.2215 4.31275 29.0833 5.91955 31.9977 8.55637C34.911 5.91841 38.7751 4.31048 43.0142 4.30935C52.0861 4.30595 59.4414 11.6589 59.4436 20.7309C59.4414 20.7331 59.4414 20.7343 59.4414 20.7388Z" fill="#8F8F8F"/>
<path d="M30.3149 31.124C30.8351 31.7609 31.3858 32.3682 31.9943 32.9189C32.0079 32.9065 32.0226 32.8951 32.0362 32.8838C32.0362 32.8838 32.0351 32.8838 32.0351 32.8827H32.0385C32.6368 32.3376 33.1954 31.7507 33.7064 31.124H30.3149Z" fill="#8F8F8F"/>
<path d="M32.5523 22.1079C32.5523 22.1079 32.7823 20.9748 32.7823 20.5136C32.7823 19.3612 32.2089 17.9561 30.2894 17.9561C28.5307 17.9572 27.2288 19.8518 27.2288 21.9935C27.2288 24.4648 28.8594 25.0518 30.2497 25.0518C31.5324 25.0518 32.0968 24.764 32.0968 24.764L32.405 23.0779C32.405 23.0779 31.4293 23.5085 30.5477 23.5085C28.6701 23.5085 28.9987 22.1079 28.9987 22.1079H32.5523ZM30.2951 19.5255C31.282 19.5255 31.0996 20.6348 31.0996 20.7232H29.1585C29.1585 20.6087 29.3421 19.5255 30.2951 19.5255Z" fill="#8F8F8F"/>
<path d="M40.7533 18.1885C41.6428 18.1885 42.3579 18.6882 42.3579 18.6882L42.6434 16.8356C42.6434 16.8356 41.5851 16.4072 40.674 16.4072C38.6559 16.4072 36.6921 18.1591 36.6921 21.4486C36.6921 23.6299 37.7516 25.0701 39.8389 25.0701C40.4281 25.0701 41.3686 24.831 41.3686 24.831L41.6814 22.9228C41.6814 22.9228 40.8247 23.3523 40.2355 23.3523C38.9936 23.3511 38.4961 22.4038 38.4961 21.3885C38.4961 19.3228 39.5635 18.1885 40.7533 18.1885Z" fill="#8F8F8F"/>
<path d="M28.1228 27.6729C28.4072 28.2836 28.7381 28.8649 29.0928 29.4315H34.9205C35.2741 28.8672 35.5925 28.2802 35.8769 27.6729H28.1228Z" fill="#8F8F8F"/>
<path d="M36.6603 18.0705C35.8773 18.0705 35.2971 19.139 35.2971 19.139L35.4547 18.1566H33.8263L32.7351 24.9351H34.53C35.0388 22.0399 35.134 19.6897 36.3476 20.1192C36.5606 18.9985 36.7657 18.5645 36.998 18.0909C36.998 18.0909 36.8892 18.0682 36.6603 18.0705Z" fill="#8F8F8F"/>
</svg>
