<svg width="50" height="54" viewBox="0 0 50 54" fill="none" xmlns="http://www.w3.org/2000/svg">
<path d="M5.59246 7.63375C5.08298 7.77593 4.63867 7.97736 4.63867 8.61124C4.63867 18.8897 4.63867 27.302 7.12682 33.937C9.65643 40.7024 14.692 45.5128 24.7334 48.3624C24.9018 48.4106 25.0804 48.4106 25.2488 48.3624C35.3199 45.5128 40.3377 40.6965 42.8732 33.937C45.3317 27.379 45.3613 19.1266 45.3613 9.01408C45.3613 8.45721 45.3613 7.90034 44.6741 7.70484C31.899 4.06149 18.363 4.0369 5.57469 7.63375H5.59246Z" fill="#8F8F8F"/>
<path d="M49.3127 3.39784C33.5174 -1.1063 16.7812 -1.13296 0.971562 3.32083C0.462084 3.45708 0 3.64666 0 4.30424C0 17.0116 0 27.4144 3.08056 35.566C6.1789 43.9013 12.3756 49.8196 24.7393 53.3148C24.9077 53.3631 25.0863 53.3631 25.2547 53.3148C37.6184 49.8018 43.8151 43.8776 46.9312 35.5838C49.9644 27.5092 49.9999 17.2663 49.9999 4.77817C49.9999 4.20353 50.0236 3.59926 49.3127 3.39784ZM45.1421 34.9381C42.2926 42.6158 36.5224 48.1193 25 51.4428C13.4775 48.1193 7.76065 42.6513 4.85781 34.9381C1.95497 27.2248 1.89573 17.2189 1.89573 5.02106C17.0139 0.835345 32.985 0.833271 48.1042 5.01514C48.1042 17.2189 47.9916 27.2604 45.1421 34.9381Z" fill="#8F8F8F"/>
</svg>
