<svg width="12" height="21" viewBox="0 0 12 21" fill="none" xmlns="http://www.w3.org/2000/svg">
<path d="M10.7949 0.644782L8.20394 0.640625C5.29307 0.640625 3.41193 2.57061 3.41193 5.55777V7.8249H0.80682C0.581708 7.8249 0.399414 8.0074 0.399414 8.23251V11.5173C0.399414 11.7424 0.581916 11.9247 0.80682 11.9247H3.41193V20.2134C3.41193 20.4385 3.59423 20.6208 3.81934 20.6208H7.21827C7.44338 20.6208 7.62567 20.4383 7.62567 20.2134V11.9247H10.6717C10.8968 11.9247 11.0791 11.7424 11.0791 11.5173L11.0803 8.23251C11.0803 8.12442 11.0373 8.02091 10.961 7.94442C10.8847 7.86792 10.7808 7.8249 10.6727 7.8249H7.62567V5.90302C7.62567 4.97929 7.8458 4.51036 9.0491 4.51036L10.7945 4.50973C11.0194 4.50973 11.2017 4.32723 11.2017 4.10233V1.05219C11.2017 0.827491 11.0196 0.645198 10.7949 0.644782Z" fill="#FC6652"/>
</svg>
